<?xml version="1.0" encoding="UTF-8"?>
<svg width="438px" height="362px" viewBox="0 0 438 362" version="1.1" xmlns="http://www.w3.org/2000/svg" xmlns:xlink="http://www.w3.org/1999/xlink">
    <!-- Generator: Sketch 48.1 (47250) - http://www.bohemiancoding.com/sketch -->
    <title>BEE</title>
    <desc>Created with Sketch.</desc>
    <defs></defs>
    <g id="BEE" stroke="none" stroke-width="1" fill="none" fill-rule="evenodd" transform="translate(0.000000, -38.000000)">
        <path style="fill: #ef3852;" d="M392.559562,140.772057 L345.230227,70.0151773 L92.6730367,70.0151773 L45.384433,140.772057 L392.559562,140.772057 Z M218.969452,360.061901 L386.078254,172.782099 L51.8657414,172.782099 L218.969452,360.061901 Z M218.969452,400 C214.48905,400 210.191938,398.074468 207.167666,394.71634 L5.93653229,169.198043 C2.58132236,166.56905 0.442948807,162.553674 0.0865532152,158.029957 L0,157.182723 L0,156.335489 C0.0152740968,153.080057 0.941902636,150.009475 2.68314967,147.416426 L71.0652811,45.0602837 C73.9928163,40.6443972 78.9110755,38 84.2111871,38 L353.692077,38 C358.99728,38 363.915539,40.6443972 366.837983,45.0654184 L435.260845,147.42156 C436.946087,149.922184 437.862533,152.895206 437.928721,156.02227 C437.979635,156.376567 438,156.561418 438,156.756539 L437.938904,157.439461 C437.699609,162.183972 435.484865,166.486894 431.84963,169.34695 L230.78142,394.711206 C227.752057,398.074468 223.449854,400 218.969452,400 Z" fill="#000000"></path>
    </g>
</svg>
