<svg width="74" height="74" viewBox="0 0 337 337" fill="none" xmlns="http://www.w3.org/2000/svg">
    <path d="M168.495 10.497C199.746 10.497 230.294 19.7638 256.278 37.1255C282.261 54.4871 302.513 79.1639 314.472 108.035C326.431 136.907 329.559 168.676 323.463 199.326C317.366 229.975 302.318 258.129 280.221 280.226C258.124 302.323 229.97 317.371 199.32 323.468C168.671 329.565 136.901 326.436 108.03 314.477C79.1583 302.518 54.482 282.266 37.1203 256.283C19.7587 230.299 10.4916 199.751 10.4916 168.501C10.4916 126.595 27.1385 86.4066 56.7699 56.7752C86.4013 27.1438 126.59 10.497 168.495 10.497ZM168.495 0.000618619C129.512 0.00164924 91.735 13.5195 61.6011 38.2511C31.4672 62.9826 10.8415 97.3975 3.23713 135.632C-4.3672 173.866 1.52103 213.555 19.8984 247.934C38.2758 282.314 68.005 309.258 104.021 324.176C140.037 339.093 180.112 341.061 217.416 329.744C254.721 318.427 286.948 294.525 308.605 262.111C330.262 229.697 340.01 190.777 336.188 151.981C332.366 113.186 315.211 76.9157 287.646 49.3509C272.034 33.656 253.466 21.213 233.014 12.7421C212.562 4.27112 190.632 -0.0595579 168.495 0.000618619Z" fill="#EC0089" />
    <path fill-rule="evenodd" clip-rule="evenodd" d="M56.8724 284.673C56.2098 285.706 55.8006 286.879 55.6767 288.1C55.5528 289.32 55.7177 290.552 56.1594 291.696C56.601 292.841 57.3068 293.865 58.2185 294.685C59.1301 295.506 60.2221 296.1 61.4063 296.419C66.5063 298.697 71.6822 300.804 76.7732 303.096C77.9325 303.641 78.9764 304.403 79.847 305.343C81.5366 307.142 83.6816 308.451 86.055 309.13C88.4283 309.808 90.9413 309.832 93.327 309.198C80.308 302.215 68.3197 293.461 57.704 283.186C57.4 283.666 57.1222 284.163 56.8724 284.673Z" fill="#EC0089" />
    <path d="M269.011 207.204C262.443 201.726 254.511 198.13 246.06 196.798C237.61 195.466 228.956 196.447 221.019 199.638C218.176 200.857 215.022 201.159 211.998 200.502C208.974 199.844 206.231 198.26 204.152 195.97L201.972 193.73C197.732 189.374 195.675 182.929 195.856 174.607C195.886 173.548 195.978 172.521 196.069 171.429C196.538 165.555 195.279 159.673 192.45 154.503C189.62 149.333 185.342 145.101 180.139 142.327C174.937 139.552 169.038 138.356 163.165 138.884C157.292 139.413 151.701 141.643 147.078 145.301C142.456 148.96 139.002 153.887 137.142 159.479C135.282 165.071 135.097 171.083 136.608 176.779C138.118 182.475 141.26 187.606 145.648 191.543C150.036 195.48 155.478 198.051 161.307 198.941C163.426 199.213 165.569 199.244 167.696 199.033C168.785 198.941 169.875 198.911 170.935 198.881C178.869 198.941 184.41 199.941 189.226 204.872L191.557 207.293C193.867 209.449 195.466 212.257 196.142 215.342C196.818 218.428 196.539 221.647 195.342 224.57C192.715 230.54 191.364 236.991 191.375 243.512C191.377 254.15 194.96 264.477 201.548 272.833C177.924 280.91 152.25 280.712 128.753 272.271C105.257 263.829 85.3345 247.647 72.2648 226.387C59.1951 205.126 53.7571 180.054 56.8435 155.294C59.9298 130.534 71.3571 107.561 89.2467 90.1537C107.136 72.7469 130.422 61.9431 155.273 59.5197C180.124 57.0962 205.061 63.1973 225.981 76.8194C246.901 90.4416 262.558 110.773 270.377 134.47C278.195 158.167 277.71 183.817 269 207.201L269.011 207.204Z" fill="#EC0089" />
    <path d="M270.908 243.835C270.898 251.726 268.154 259.357 263.164 265.366C258.175 271.376 251.264 275.374 243.665 276.648C236.067 277.922 228.275 276.388 221.677 272.321C215.079 268.253 210.106 261.917 207.643 254.44C205.18 246.964 205.387 238.834 208.229 231.5C211.071 224.166 216.362 218.105 223.159 214.398C229.955 210.69 237.816 209.577 245.339 211.257C252.861 212.938 259.557 217.301 264.233 223.571C268.57 229.39 270.916 236.512 270.908 243.835V243.835Z" fill="#EC0089" />
</svg>
    