<svg class="d-none d-lg-block jsx-992168436" height="40px" id="logo-mw" xmlns="http://www.w3.org/2000/svg" viewBox="0 0 331 40"><defs><style>#logo-mw .mw-showdow<!-- -->{<!-- -->fill:#262a82<!-- -->}<!-- -->#logo-mw .pink<!-- -->{<!-- -->fill:#ec0089<!-- -->}<!-- -->#logo-mw .blue<!-- -->{<!-- -->fill:#00bce7<!-- -->}<!-- -->#logo-mw .yellow<!-- -->{<!-- -->fill:#fff21f<!-- -->}<!-- -->#logo-mw .green<!-- -->{<!-- -->fill:#65bd60<!-- -->}</style></defs><path class="pink" d="M2 .9L19.4 13 36.8 1v35H2.1z"/><path class="blue" d="M69.1 1.1v10.6H62v2.7h7.1v8.5H62v2.7h7.1v10.2H40.2V1z"/><path class="yellow" d="M109.3 18.6A18.6 18.6 0 1 1 90.8 0c11.6 0 18.5 8.3 18.5 18.6z"/><path class="green" d="M168.4 1.1l-22 36c-4.2-7-8.3-12.7-12.5-19.7l-2.3 1.8 3.8 6.5-7.3 11.4-22-36z"/><path class="pink" d="M235 1.1l-22 36c-4.1-7-8.3-12.7-12.4-19.7l-2.4 1.9 3.6 6-7 11.9-22-36z"/><path class="yellow" d="M268.3 18.6A18.6 18.6 0 1 1 249.7 0a18.6 18.6 0 0 1 18.6 18.6z"/><path class="blue" d="M298.7 18.4v17.4h-27.2V1h17.7v17.3z"/><path class="green" d="M331 1.1V12h-7.1v2.7h7.1v10.9h-7.8v10.2H302V1z"/></svg>